<?xml version="1.0" encoding="UTF-8" standalone="no"?>
<!-- Created with Inkscape (http://www.inkscape.org/) -->

<svg
   version="1.1"
   id="svg2"
   width="672"
   height="169.98666"
   viewBox="0 0 672 169.98666"
   sodipodi:docname="CENT-Horizontal-Color.eps"
   xmlns:inkscape="http://www.inkscape.org/namespaces/inkscape"
   xmlns:sodipodi="http://sodipodi.sourceforge.net/DTD/sodipodi-0.dtd"
   xmlns="http://www.w3.org/2000/svg"
   xmlns:svg="http://www.w3.org/2000/svg">
  <defs
     id="defs6" />
  <sodipodi:namedview
     id="namedview4"
     pagecolor="#ffffff"
     bordercolor="#000000"
     borderopacity="0.25"
     inkscape:showpageshadow="2"
     inkscape:pageopacity="0.0"
     inkscape:pagecheckerboard="0"
     inkscape:deskcolor="#d1d1d1" />
  <g
     id="g8"
     inkscape:groupmode="layer"
     inkscape:label="ink_ext_XXXXXX"
     transform="matrix(1.3333333,0,0,-1.3333333,0,169.98667)">
    <g
       id="g10"
       transform="scale(0.1)">
      <path
         d="M 640.059,1274.9 C 286.563,1274.9 0,988.336 0,634.844 0,308.625 244.105,39.6016 559.582,0 l -17.008,147.84 c -3.179,27.64 -28.504,47.23 -56.058,43.371 l -90.629,-12.723 c -36.52,-5.129 -70.09,20.844 -74.305,57.481 l -19.156,166.496 c -2.047,17.805 -13.559,33.109 -30.09,40.023 l -57.613,24.078 c -21.606,9.032 -30.414,34.95 -18.789,55.274 l 56.39,98.566 c 13.563,23.707 19.469,51.02 16.91,78.207 l -8.273,88.071 0.277,-0.036 c -0.101,2.774 -0.277,5.528 -0.277,8.317 0,166.531 178.816,301.535 399.394,301.535 220.583,0 399.405,-135.004 399.405,-301.535 0,-20.645 1.76,-23.254 -42.74,-174.731 C 966.188,447.184 950.285,265.691 970.234,86.4609 1155.92,198.5 1280.12,402.152 1280.12,634.844 c 0,353.492 -286.569,640.056 -640.061,640.056"
         style="fill:#233e76;fill-opacity:1;fill-rule:nonzero;stroke:none"
         id="path12" />
      <path
         d="M 874.445,332.508 C 1032.52,646.75 856.633,768.641 634.984,554.137 847.613,623.32 874.672,560.184 874.445,332.508"
         style="fill:#747576;fill-opacity:1;fill-rule:nonzero;stroke:none"
         id="path14" />
      <path
         d="M 329.547,475.5 C 770.766,649.781 964.672,232.961 786.836,11.6992 785.996,10.6602 852.453,480.359 329.547,475.5"
         style="fill:#e01d26;fill-opacity:1;fill-rule:nonzero;stroke:none"
         id="path16" />
      <path
         d="M 356.91,319.184 C 793.313,454.375 761.043,12.4688 760.641,6 655.117,313.176 356.91,319.184 356.91,319.184"
         style="fill:#233e76;fill-opacity:1;fill-rule:nonzero;stroke:none"
         id="path18" />
      <path
         d="m 1814.31,674.324 c 119.64,0 200.04,53.477 238.93,158.957 l 2.41,6.543 -49.02,16.352 -2.03,-6.637 c -23.44,-76.934 -96.25,-126.644 -185.51,-126.644 -153.52,0 -176.44,155.96 -176.44,248.929 0,158.706 64.31,249.726 176.44,249.726 80.77,0 146.85,-45.72 196.39,-135.89 l 2.76,-5 29.93,10.4 -52.88,166.32 h -32.5 l -10.45,-24.4 c -36.02,23.48 -84.64,36.34 -138.03,36.34 -158.06,0 -272.8,-125.11 -272.8,-297.496 0,-172.383 114.74,-297.5 272.8,-297.5"
         style="fill:#233e76;fill-opacity:1;fill-rule:nonzero;stroke:none"
         id="path20" />
      <path
         d="m 2223.07,906.098 84.31,223.612 86.46,-223.612 z M 2045.66,719.074 v -32.801 h 190.35 v 33.012 l -6.32,0.406 c -35.16,2.286 -56.19,8.516 -62.54,18.512 -3.26,5.156 -3.05,12.231 0.72,21.75 l 36.58,97.574 h 208.13 l 37.36,-97.609 c 4.54,-11.895 5.13,-19.797 1.9,-24.848 -5.32,-8.269 -23.29,-13.164 -56.58,-15.379 l -6.3,-0.421 v -32.997 h 220.62 v 32.747 l -6.04,0.652 c -32.94,3.504 -47.83,16.558 -61.27,53.726 l -184.1,483.982 h -54.73 L 2117.77,769.523 c -12.48,-32.781 -30.37,-46.296 -66.02,-49.851 l -6.09,-0.598"
         style="fill:#233e76;fill-opacity:1;fill-rule:nonzero;stroke:none"
         id="path22" />
      <path
         d="m 2939.67,1008.85 h -112.73 v 182.03 c 0,11.36 5.77,17.13 17.14,17.13 h 96.38 c 88.18,0 131.04,-32.45 131.04,-99.17 0,-67.28 -43.13,-99.99 -131.83,-99.99 z m -35.46,-289.545 -6.34,0.386 c -62.92,3.922 -70.93,7.672 -70.93,62.559 v 178.027 h 112.73 c 192.54,0 232.97,80.793 232.97,148.563 0,97.17 -80.28,148.54 -232.18,148.54 H 2657.3 v -33.06 l 6.35,-0.36 c 64.92,-3.82 70.92,-5.79 70.92,-62.56 V 782.25 c 0,-54.887 -8.01,-58.637 -70.93,-62.559 l -6.34,-0.386 v -33.032 h 246.91 v 33.032"
         style="fill:#233e76;fill-opacity:1;fill-rule:nonzero;stroke:none"
         id="path24" />
      <path
         d="m 3198.08,1224.34 6.34,-0.38 c 62.89,-3.93 70.93,-6.58 70.93,-62.56 V 782.25 c 0,-54.887 -8.01,-58.637 -70.93,-62.559 l -6.34,-0.386 v -33.032 h 246.91 v 33.032 l -6.34,0.386 c -62.92,3.922 -70.93,7.672 -70.93,62.559 v 379.15 c 0,55.98 8.04,58.63 70.93,62.56 l 6.34,0.38 v 33.04 h -246.91 v -33.04"
         style="fill:#233e76;fill-opacity:1;fill-rule:nonzero;stroke:none"
         id="path26" />
      <path
         d="m 3785.07,782.25 v 408.63 c 0,11.36 5.77,17.13 17.14,17.13 84.17,0 120.42,-21.4 168.69,-99.55 l 3.25,-5.24 28.69,14.34 -65.5,157.34 h -29.28 l -1.53,-4.61 c -3.03,-9.06 -8.26,-12.91 -17.49,-12.91 h -301.11 c -8.9,0 -13.58,3.62 -16.68,12.89 l -1.53,4.63 h -30.09 l -65.5,-157.34 28.65,-14.32 3.25,5.19 c 51.4,81.9 81.5,99.58 169.53,99.58 11.37,0 17.14,-5.77 17.14,-17.13 V 782.25 c 0,-54.887 -8,-58.637 -70.93,-62.559 l -6.34,-0.386 v -33.032 h 246.91 v 33.032 l -6.33,0.386 c -62.93,3.922 -70.94,7.672 -70.94,62.559"
         style="fill:#233e76;fill-opacity:1;fill-rule:nonzero;stroke:none"
         id="path28" />
      <path
         d="m 4274.2,906.098 h -170.76 l 84.31,223.612 z m 148.44,-132.7 -184.11,483.982 h -54.72 L 3998.14,769.523 c -12.48,-32.781 -30.37,-46.296 -66.03,-49.851 l -6.08,-0.598 v -32.801 h 190.34 v 33.012 l -6.31,0.406 c -35.16,2.286 -56.19,8.516 -62.54,18.512 -3.26,5.156 -3.05,12.231 0.72,21.75 l 36.58,97.574 h 208.13 l 37.35,-97.609 c 4.54,-11.895 5.14,-19.797 1.9,-24.848 -5.31,-8.269 -23.28,-13.164 -56.57,-15.379 l -6.3,-0.421 v -32.997 h 220.62 v 32.747 l -6.04,0.652 c -32.94,3.504 -47.83,16.558 -61.27,53.726"
         style="fill:#233e76;fill-opacity:1;fill-rule:nonzero;stroke:none"
         id="path30" />
      <path
         d="m 5013.76,858.918 -3.82,-4.715 C 4950.57,781 4892.1,735.633 4784.19,735.633 h -51.77 c -11.37,0 -17.14,5.773 -17.14,17.14 V 1161.4 c 0,55.98 8.04,58.63 70.93,62.56 l 6.34,0.38 v 33.04 h -246.91 v -33.04 l 6.34,-0.38 c 62.89,-3.93 70.93,-6.58 70.93,-62.56 V 782.25 c 0,-54.887 -8.01,-58.637 -70.93,-62.559 l -6.34,-0.386 v -33.032 h 411.49 l 82.87,155.614 -26.24,17.031"
         style="fill:#233e76;fill-opacity:1;fill-rule:nonzero;stroke:none"
         id="path32" />
      <path
         d="M 2044.85,167.93 C 1985.47,94.7188 1925.68,49.3594 1811.14,49.3594 h -82.85 c -11.37,0 -17.14,5.7695 -17.14,17.1406 v 206.711 h 122.28 c 52.94,0 63.44,-20.973 68.16,-71.141 l 0.56,-6.129 h 33.63 v 203.903 h -33.63 l -0.56,-6.125 c -4.72,-50.168 -15.22,-71.145 -68.16,-71.145 h -122.28 v 182.024 c 0,11.371 5.77,17.14 17.14,17.14 h 89.22 c 92.93,0 149.91,-28.05 203.25,-100.023 l 3.45,-4.645 27.31,14.309 -57.44,139.719 H 1541.51 V 538.07 l 6.34,-0.386 c 62.89,-3.926 70.93,-6.582 70.93,-62.559 V 95.9688 c 0,-54.879 -8,-58.629 -70.93,-62.5469 l -6.34,-0.3906 V 0 h 451.32 l 82.94,155.73 -27.17,16.809 -3.75,-4.609"
         style="fill:#233e76;fill-opacity:1;fill-rule:nonzero;stroke:none"
         id="path34" />
      <path
         d="m 2475.77,538.07 6.33,-0.386 c 62.49,-3.856 69.35,-6.18 69.35,-62.559 V 170.43 l -260.01,397.605 -1.99,3.063 H 2105.38 V 538.07 l 6.34,-0.386 c 61.52,-3.836 71.72,-6.09 71.72,-62.559 V 95.9688 c 0,-54.4805 -9.01,-58.629 -71.72,-62.5469 l -6.34,-0.3906 V 0 h 210.27 v 33.0313 l -6.33,0.3906 c -62.72,3.9179 -71.73,8.0664 -71.73,62.5469 V 481.125 L 2550.17,3.05859 2552.16,0 h 53.42 v 475.125 c 0,56.027 7.96,58.668 70.15,62.559 l 6.33,0.386 v 33.028 H 2475.77 V 538.07"
         style="fill:#233e76;fill-opacity:1;fill-rule:nonzero;stroke:none"
         id="path36" />
      <path
         d="m 3145.89,588.625 -1.53,-4.609 c -3.03,-9.063 -8.26,-12.918 -17.49,-12.918 h -301.11 c -8.9,0 -13.59,3.625 -16.68,12.898 l -1.53,4.629 h -30.09 l -65.5,-157.336 28.65,-14.324 3.25,5.191 c 51.4,81.899 81.49,99.582 169.53,99.582 11.37,0 17.14,-5.769 17.14,-17.14 V 95.9688 c 0,-54.879 -8,-58.629 -70.93,-62.5469 l -6.34,-0.3906 V 0 h 246.91 v 33.0313 l -6.33,0.3906 c -62.93,3.9179 -70.94,7.6679 -70.94,62.5469 V 504.598 c 0,11.371 5.77,17.14 17.14,17.14 84.17,0 120.42,-21.398 168.69,-99.547 l 3.25,-5.242 28.69,14.34 -65.5,157.336 h -29.28"
         style="fill:#233e76;fill-opacity:1;fill-rule:nonzero;stroke:none"
         id="path38" />
      <path
         d="m 3496.12,463.523 c 0,8.196 -6.34,14.543 -15.87,14.543 -10.58,0 -18.25,-7.921 -18.25,-17.988 0,-5.547 2.12,-11.094 6.35,-17.715 17.99,2.391 27.77,10.856 27.77,21.16 z m -8.99,-100.511 c -13.22,11.914 -25.66,24.867 -37.29,39.148 -29.1,-4.23 -43.65,-12.695 -43.65,-26.18 0,-13.238 14.55,-21.16 42.06,-21.16 12.17,0 24.86,2.903 38.88,8.192 z m -124.32,14.027 c 0,26.707 21.16,46.008 62.96,57.391 -4.5,8.718 -6.62,17.457 -6.62,26.195 0,11.363 3.97,22.473 11.38,31.195 11.9,14.297 30.42,22.489 50.78,22.489 34.12,0 57.13,-21.161 57.13,-50.512 0,-22.762 -15.6,-41.262 -45.23,-51.844 8.47,-9.793 17.99,-18.785 28.04,-26.992 10.85,11.91 18.52,25.391 23.28,40.746 h 44.43 c -7.14,-23.019 -18.51,-43.379 -34.38,-61.637 12.17,-3.445 24.6,-5.289 37.29,-5.289 h 2.65 v -38.617 c -25.92,0.801 -51.05,6.348 -74.86,17.184 -28.03,-12.696 -53.16,-19.301 -76.44,-19.301 -48.4,0 -80.41,26.453 -80.41,58.992"
         style="fill:#e01d26;fill-opacity:1;fill-rule:nonzero;stroke:none"
         id="path40" />
      <path
         d="m 3755.4,352.16 25.39,31.227 c 32.8,-20.102 65.33,-29.625 101.04,-29.625 38.62,0 60.31,11.093 60.31,26.711 0,16.925 -24.87,16.925 -65.6,18.785 -74.59,3.176 -111.36,17.984 -111.36,56.332 0,37.558 37.56,61.363 106.86,61.363 46.82,0 84.64,-9.519 112.68,-28.035 l -26.45,-30.684 c -26.98,14.539 -54.22,21.434 -84.11,21.434 -39.94,0 -60.57,-7.68 -60.57,-20.102 0,-6.621 5.55,-11.125 16.66,-13.753 18.25,-4.508 42.85,-3.176 72.48,-5.836 60.04,-5.547 88.87,-20.102 88.87,-57.649 0,-41.531 -39.15,-66.14 -111.89,-66.14 -47.87,0 -87.55,10.582 -124.31,35.972"
         style="fill:#e01d26;fill-opacity:1;fill-rule:nonzero;stroke:none"
         id="path42" />
      <path
         d="m 4057.51,512.191 h 46.56 v -191.5 h -46.56 v 191.5"
         style="fill:#e01d26;fill-opacity:1;fill-rule:nonzero;stroke:none"
         id="path44" />
      <path
         d="m 4181.32,512.191 h 54.22 L 4365.41,375.18 h 1.06 v 137.011 h 46.55 v -191.5 h -54.49 l -129.87,136.758 h -0.79 V 320.691 h -46.55 v 191.5"
         style="fill:#e01d26;fill-opacity:1;fill-rule:nonzero;stroke:none"
         id="path46" />
      <path
         d="m 4486.87,385.23 v 126.961 h 46.55 V 391.578 c 0,-23.547 25.13,-39.418 69.3,-39.418 44.18,0 69.3,16.145 69.3,39.418 v 120.613 h 46.56 V 385.23 c 0,-40.476 -44.18,-70.097 -115.86,-70.097 -71.68,0 -115.85,29.621 -115.85,70.097"
         style="fill:#e01d26;fill-opacity:1;fill-rule:nonzero;stroke:none"
         id="path48" />
      <path
         d="m 4773.11,352.16 25.39,31.227 c 32.8,-20.102 65.33,-29.625 101.04,-29.625 38.62,0 60.31,11.093 60.31,26.711 0,16.925 -24.87,16.925 -65.6,18.785 -74.59,3.176 -111.35,17.984 -111.35,56.332 0,37.558 37.55,61.363 106.85,61.363 46.82,0 84.65,-9.519 112.68,-28.035 l -26.45,-30.684 c -26.98,14.539 -54.22,21.434 -84.11,21.434 -39.94,0 -60.57,-7.68 -60.57,-20.102 0,-6.621 5.55,-11.125 16.66,-13.753 18.25,-4.508 42.85,-3.176 72.48,-5.836 60.04,-5.547 88.87,-20.102 88.87,-57.649 0,-41.531 -39.15,-66.14 -111.88,-66.14 -47.88,0 -87.56,10.582 -124.32,35.972"
         style="fill:#e01d26;fill-opacity:1;fill-rule:nonzero;stroke:none"
         id="path50" />
      <path
         d="m 3404.87,75.0195 c -25.66,15.8711 -42.06,44.7105 -42.06,76.9805 0,27.512 11.38,51.59 33.07,69.57 24.07,19.828 58.45,31.469 96.81,31.469 51.57,0 91.25,-18.258 122.2,-56.598 l -42.32,-15.07 c -21.43,21.16 -49.2,34.641 -83.59,34.641 -47.61,0 -79.88,-26.981 -79.88,-64.012 0,-37.828 32.8,-64.5391 83.59,-64.5391 32.27,0 57.92,11.3789 80.4,35.7191 l 39.42,-21.16 c -31.74,-36.2505 -67.72,-51.5903 -117.71,-51.5903 -33.85,0 -62.42,7.6601 -89.93,24.5898"
         style="fill:#e01d26;fill-opacity:1;fill-rule:nonzero;stroke:none"
         id="path52" />
      <path
         d="m 3678.41,247.219 h 207.64 v -36.77 h -161.09 v -39.148 h 111.89 V 134.539 H 3724.96 V 92.4883 h 168.49 V 55.7188 H 3678.41 V 247.219"
         style="fill:#e01d26;fill-opacity:1;fill-rule:nonzero;stroke:none"
         id="path54" />
      <path
         d="m 3954.6,247.219 h 54.22 l 129.87,-137.008 h 1.06 v 137.008 h 46.55 V 55.7188 h -54.48 L 4001.95,192.461 h -0.8 V 55.7188 H 3954.6 V 247.219"
         style="fill:#e01d26;fill-opacity:1;fill-rule:nonzero;stroke:none"
         id="path56" />
      <path
         d="m 4334.74,210.449 h -91.25 v 36.77 h 229.06 v -36.77 H 4381.3 V 55.7188 h -46.56 V 210.449"
         style="fill:#e01d26;fill-opacity:1;fill-rule:nonzero;stroke:none"
         id="path58" />
      <path
         d="m 4532.37,247.219 h 207.64 v -36.77 h -161.08 v -39.148 h 111.88 V 134.539 H 4578.93 V 92.4883 h 168.48 V 55.7188 H 4532.37 V 247.219"
         style="fill:#e01d26;fill-opacity:1;fill-rule:nonzero;stroke:none"
         id="path60" />
      <path
         d="m 4957.74,160.211 c 19.84,0 31.21,9.777 31.21,25.648 0,14.551 -11.64,24.59 -31.48,24.59 h -105 v -50.238 z m -151.83,87.008 h 156.85 c 43.65,0 72.21,-25.387 72.21,-62.68 0,-30.168 -14.81,-49.719 -43.64,-57.68 L 5040,55.7188 h -52.37 l -47.08,67.7112 h -88.08 V 55.7188 h -46.56 V 247.219"
         style="fill:#e01d26;fill-opacity:1;fill-rule:nonzero;stroke:none"
         id="path62" />
    </g>
  </g>
</svg>
